<svg width="24" height="33" viewBox="0 0 24 33" fill="none" xmlns="http://www.w3.org/2000/svg">
<path d="M13.7898 0.492981L23.0191 5.55771C23.2323 5.67468 23.4097 5.84498 23.5332 6.05102C23.6567 6.25713 23.7218 6.49154 23.7218 6.73031C23.7218 6.96907 23.6567 7.20348 23.5332 7.4096C23.4097 7.61564 23.2323 7.78594 23.0191 7.9029L13.7899 12.9679C13.2008 13.2911 12.5366 13.4609 11.8609 13.4609C11.1852 13.4609 10.521 13.2911 9.93199 12.9679L0.702652 7.9029C0.489502 7.78594 0.312054 7.61564 0.188557 7.4096C0.0650616 7.20348 -4.00543e-05 6.96907 -4.00543e-05 6.73031C-4.00543e-05 6.49154 0.0650616 6.25713 0.188557 6.05102C0.312054 5.84498 0.489502 5.67468 0.702652 5.55771L9.93199 0.492981C10.521 0.169739 11.1852 -5.72205e-06 11.8609 -5.72205e-06C12.5366 -5.72205e-06 13.2008 0.169739 13.7898 0.492981Z" fill="#635BFF"/>
</svg>
