<svg width="32" height="33" viewBox="0 0 32 33" fill="none" xmlns="http://www.w3.org/2000/svg">
<g clip-path="url(#clip0_0_2378)">
<path d="M17.828 0.492981L27.0573 5.55771C27.2705 5.67468 27.4479 5.84498 27.5714 6.05102C27.6949 6.25713 27.76 6.49154 27.76 6.73031C27.76 6.96907 27.6949 7.20348 27.5714 7.4096C27.4479 7.61564 27.2705 7.78594 27.0573 7.9029L17.8281 12.9679C17.239 13.2911 16.5748 13.4609 15.8991 13.4609C15.2234 13.4609 14.5592 13.2911 13.9702 12.9679L4.74086 7.9029C4.52771 7.78594 4.35026 7.61564 4.22676 7.4096C4.10327 7.20348 4.03817 6.96907 4.03817 6.73031C4.03817 6.49154 4.10327 6.25713 4.22676 6.05102C4.35026 5.84498 4.52771 5.67468 4.74086 5.55771L13.9702 0.492981C14.5592 0.169739 15.2234 -5.72205e-06 15.8991 -5.72205e-06C16.5748 -5.72205e-06 17.239 0.169739 17.828 0.492981Z" fill="#635BFF"/>
<path opacity="0.7" d="M17.7782 5.2478L30.996 12.5013C31.2092 12.6183 31.3866 12.7886 31.5101 12.9946C31.6336 13.2007 31.6987 13.4351 31.6987 13.6739C31.6987 13.9127 31.6336 14.1471 31.5101 14.3532C31.3866 14.5593 31.2092 14.7295 30.996 14.8466L17.7782 22.1C17.1893 22.4231 16.525 22.593 15.8494 22.593C15.1738 22.593 14.5095 22.4231 13.9205 22.1L0.702734 14.8466C0.489584 14.7295 0.312134 14.5593 0.188637 14.3532C0.0651398 14.1471 4.19617e-05 13.9127 4.19617e-05 13.6739C4.19617e-05 13.4351 0.0651398 13.2007 0.188637 12.9946C0.312134 12.7886 0.489584 12.6183 0.702734 12.5013L13.9205 5.2478C14.5095 4.92464 15.1738 4.75489 15.8494 4.75489C16.525 4.75489 17.1893 4.92464 17.7782 5.2478Z" fill="#635BFF"/>
</g>
<defs>
<clipPath id="clip0_0_2378">
<rect width="32" height="33" fill="white"/>
</clipPath>
</defs>
</svg>
