<svg width="42" height="33" viewBox="0 0 42 33" fill="none" xmlns="http://www.w3.org/2000/svg">
<path d="M22.6743 0.49292L31.9036 5.55765C32.1169 5.67462 32.2942 5.84492 32.4177 6.05096C32.5412 6.25707 32.6063 6.49148 32.6063 6.73025C32.6063 6.96901 32.5412 7.20342 32.4177 7.40954C32.2942 7.61558 32.1169 7.78587 31.9036 7.90284L22.6744 12.9678C22.0853 13.2911 21.4211 13.4609 20.7454 13.4609C20.0697 13.4609 19.4055 13.2911 18.8165 12.9678L9.58717 7.90284C9.37402 7.78587 9.19658 7.61558 9.07308 7.40954C8.94958 7.20342 8.88448 6.96901 8.88448 6.73025C8.88448 6.49148 8.94958 6.25707 9.07308 6.05096C9.19658 5.84492 9.37402 5.67462 9.58717 5.55765L18.8165 0.49292C19.4055 0.169678 20.0697 -6.67572e-05 20.7454 -6.67572e-05C21.4211 -6.67572e-05 22.0853 0.169678 22.6743 0.49292Z" fill="#635BFF"/>
<path opacity="0.7" d="M22.6244 5.24774L35.8422 12.5012C36.0554 12.6182 36.2328 12.7885 36.3563 12.9945C36.4798 13.2007 36.5449 13.4351 36.5449 13.6738C36.5449 13.9126 36.4798 14.1471 36.3563 14.3531C36.2328 14.5592 36.0554 14.7295 35.8422 14.8465L22.6244 22.0999C22.0355 22.4231 21.3712 22.5929 20.6956 22.5929C20.0199 22.5929 19.3557 22.4231 18.7667 22.0999L5.54893 14.8465C5.33578 14.7295 5.15833 14.5592 5.03483 14.3531C4.91133 14.1471 4.84623 13.9126 4.84623 13.6738C4.84623 13.4351 4.91133 13.2007 5.03483 12.9945C5.15833 12.7885 5.33578 12.6182 5.54893 12.5012L18.7667 5.24774C19.3557 4.92458 20.0199 4.75483 20.6956 4.75483C21.3712 4.75483 22.0355 4.92458 22.6244 5.24774Z" fill="#635BFF"/>
<path opacity="0.4" d="M22.9257 10.0018L41.2984 20.0843C41.5113 20.2012 41.6884 20.3711 41.8117 20.5769C41.935 20.7826 42 21.0167 42 21.2551C42 21.4935 41.935 21.7275 41.8117 21.9333C41.6884 22.139 41.5113 22.309 41.2984 22.4258L22.9257 32.5081C22.3377 32.8307 21.6745 33.0002 21 33.0002C20.3254 33.0002 19.6623 32.8307 19.0743 32.5081L0.701542 22.4258C0.488743 22.309 0.311581 22.139 0.188286 21.9333C0.0649948 21.7275 0 21.4935 0 21.2551C0 21.0167 0.0649948 20.7826 0.188286 20.5769C0.311581 20.3711 0.488743 20.2012 0.701542 20.0843L19.0743 10.0018C19.6623 9.67921 20.3254 9.50966 21 9.50966C21.6745 9.50966 22.3377 9.67921 22.9257 10.0018Z" fill="#635BFF"/>
</svg>
